<svg viewBox="0 0 1200 800" xmlns="http://www.w3.org/2000/svg">
  <!-- Mobile Layout (Left Side) -->
  <g id="mobile-layout">
    <!-- Mobile Frame -->
    <rect x="50" y="50" width="300" height="600" fill="none" stroke="#333" stroke-width="2" rx="20"/>
    <text x="60" y="30" font-family="Arial, sans-serif" font-size="14" font-weight="bold">MOBILE (375x812)</text>
    
    <!-- Status Bar -->
    <rect x="60" y="60" width="280" height="20" fill="#f0f0f0"/>
    <text x="65" y="75" font-family="Arial, sans-serif" font-size="10">9:41 AM</text>
    <text x="320" y="75" font-family="Arial, sans-serif" font-size="10" text-anchor="end">100%</text>
    
    <!-- Header -->
    <rect x="60" y="90" width="280" height="50" fill="#f8f9fa"/>
    <text x="200" y="120" font-family="Arial, sans-serif" font-size="16" font-weight="bold" text-anchor="middle">My Trips</text>
    <text x="320" y="120" font-family="Arial, sans-serif" font-size="14" text-anchor="end">⋯</text>
    
    <!-- Tab Navigation -->
    <rect x="60" y="150" width="280" height="40" fill="#f8f9fa"/>
    <rect x="80" y="160" width="100" height="20" fill="#005BFF" rx="10"/>
    <text x="130" y="173" font-family="Arial, sans-serif" font-size="11" fill="white" text-anchor="middle">Upcoming</text>
    <text x="250" y="173" font-family="Arial, sans-serif" font-size="11" fill="#666" text-anchor="middle">Past</text>
    
    <!-- Boarding Pass Card 1 -->
    <g id="boarding-pass-1">
      <!-- Main Card with Dashed Perforations -->
      <rect x="70" y="210" width="260" height="120" fill="white" stroke="#e0e0e0" rx="8"/>
      
      <!-- Perforation Line -->
      <line x1="250" y1="220" x2="250" y2="320" stroke="#ccc" stroke-width="1" stroke-dasharray="3,3"/>
      
      <!-- Left Section - Event Info -->
      <rect x="80" y="220" width="160" height="100" fill="white"/>
      <text x="90" y="240" font-family="Arial, sans-serif" font-size="12" font-weight="bold">Summer Music Festival</text>
      <text x="90" y="255" font-family="Arial, sans-serif" font-size="10" fill="#666">Saturday, Aug 10, 2025</text>
      <text x="90" y="270" font-family="Arial, sans-serif" font-size="10" fill="#666">6:00 PM - 11:00 PM</text>
      <text x="90" y="285" font-family="Arial, sans-serif" font-size="10" fill="#666">📍 Central Park, NYC</text>
      <text x="90" y="300" font-family="Arial, sans-serif" font-size="10" fill="#005BFF">General Admission</text>
      <text x="90" y="315" font-family="Arial, sans-serif" font-size="8" fill="#666">Ticket #SMF-2025-001</text>
      
      <!-- Right Section - QR Code -->
      <rect x="260" y="230" width="60" height="60" fill="#000"/>
      <rect x="265" y="235" width="50" height="50" fill="white"/>
      <rect x="270" y="240" width="40" height="40" fill="#000"/>
      <rect x="275" y="245" width="30" height="30" fill="white"/>
      <text x="290" y="305" font-family="Arial, sans-serif" font-size="8" text-anchor="middle">QR Code</text>
      
      <!-- Status Indicator -->
      <circle cx="310" cy="230" r="6" fill="#4CAF50"/>
      <text x="310" y="234" font-family="Arial, sans-serif" font-size="6" fill="white" text-anchor="middle">✓</text>
    </g>
    
    <!-- Boarding Pass Card 2 -->
    <g id="boarding-pass-2">
      <rect x="70" y="350" width="260" height="120" fill="white" stroke="#e0e0e0" rx="8"/>
      <line x1="250" y1="360" x2="250" y2="460" stroke="#ccc" stroke-width="1" stroke-dasharray="3,3"/>
      
      <rect x="80" y="360" width="160" height="100" fill="white"/>
      <text x="90" y="380" font-family="Arial, sans-serif" font-size="12" font-weight="bold">Tech Conference 2025</text>
      <text x="90" y="395" font-family="Arial, sans-serif" font-size="10" fill="#666">Friday, Aug 16, 2025</text>
      <text x="90" y="410" font-family="Arial, sans-serif" font-size="10" fill="#666">9:00 AM - 6:00 PM</text>
      <text x="90" y="425" font-family="Arial, sans-serif" font-size="10" fill="#666">📍 Convention Center</text>
      <text x="90" y="440" font-family="Arial, sans-serif" font-size="10" fill="#FF6600">VIP Experience</text>
      <text x="90" y="455" font-family="Arial, sans-serif" font-size="8" fill="#666">Ticket #TC-2025-042</text>
      
      <rect x="260" y="370" width="60" height="60" fill="#000"/>
      <rect x="265" y="375" width="50" height="50" fill="white"/>
      <rect x="270" y="380" width="40" height="40" fill="#000"/>
      <text x="290" y="445" font-family="Arial, sans-serif" font-size="8" text-anchor="middle">QR Code</text>
      
      <circle cx="310" cy="370" r="6" fill="#FF9800"/>
      <text x="310" y="374" font-family="Arial, sans-serif" font-size="6" fill="white" text-anchor="middle">!</text>
    </g>
    
    <!-- Swipe Indicator -->
    <text x="200" y="500" font-family="Arial, sans-serif" font-size="10" text-anchor="middle" fill="#666">Swipe left to archive</text>
    <text x="200" y="515" font-family="Arial, sans-serif" font-size="10" text-anchor="middle" fill="#666">← → →</text>
    
    <!-- Empty State (Hidden) -->
    <rect x="70" y="530" width="260" height="80" fill="#f8f9fa" stroke="#e0e0e0" rx="8" stroke-dasharray="5,5"/>
    <text x="200" y="560" font-family="Arial, sans-serif" font-size="12" text-anchor="middle" fill="#666">No upcoming trips</text>
    <text x="200" y="580" font-family="Arial, sans-serif" font-size="10" text-anchor="middle" fill="#666">Book your next adventure!</text>
    <rect x="150" y="590" width="100" height="25" fill="#005BFF" rx="4"/>
    <text x="200" y="607" font-family="Arial, sans-serif" font-size="10" fill="white" text-anchor="middle">Explore Events</text>
    
    <!-- Bottom Navigation -->
    <rect x="60" y="610" width="280" height="50" fill="#f8f9fa" stroke="#e0e0e0"/>
    <text x="95" y="640" font-family="Arial, sans-serif" font-size="8" text-anchor="middle">Flights</text>
    <text x="145" y="640" font-family="Arial, sans-serif" font-size="8" text-anchor="middle">Search</text>
    <rect x="175" y="620" width="40" height="30" fill="#005BFF" rx="4"/>
    <text x="195" y="640" font-family="Arial, sans-serif" font-size="8" fill="white" text-anchor="middle">Trips</text>
    <text x="245" y="640" font-family="Arial, sans-serif" font-size="8" text-anchor="middle">Social</text>
    <text x="295" y="640" font-family="Arial, sans-serif" font-size="8" text-anchor="middle">Profile</text>
  </g>
  
  <!-- Web Layout (Right Side) -->
  <g id="web-layout">
    <!-- Web Frame -->
    <rect x="450" y="50" width="700" height="500" fill="none" stroke="#333" stroke-width="2"/>
    <text x="460" y="30" font-family="Arial, sans-serif" font-size="14" font-weight="bold">WEB (1440x900)</text>
    
    <!-- Header Navigation -->
    <rect x="460" y="60" width="680" height="50" fill="#f8f9fa" stroke="#e0e0e0"/>
    <text x="480" y="90" font-family="Arial, sans-serif" font-size="16" font-weight="bold">Bole.to</text>
    <text x="600" y="90" font-family="Arial, sans-serif" font-size="14">Destinations</text>
    <text x="680" y="90" font-family="Arial, sans-serif" font-size="14">Search</text>
    <text x="730" y="90" font-family="Arial, sans-serif" font-size="14" font-weight="bold">My Trips</text>
    <text x="780" y="90" font-family="Arial, sans-serif" font-size="14">Social</text>
    
    <!-- Main Content -->
    <rect x="480" y="130" width="640" height="360" fill="white"/>
    
    <!-- Page Header -->
    <text x="500" y="160" font-family="Arial, sans-serif" font-size="24" font-weight="bold">My Trips</text>
    <text x="1100" y="160" font-family="Arial, sans-serif" font-size="12" text-anchor="end">Export to Calendar</text>
    
    <!-- Tab Navigation -->
    <rect x="500" y="180" width="600" height="40" fill="#f8f9fa"/>
    <rect x="520" y="190" width="80" height="20" fill="#005BFF" rx="10"/>
    <text x="560" y="203" font-family="Arial, sans-serif" font-size="11" fill="white" text-anchor="middle">Upcoming</text>
    <text x="640" y="203" font-family="Arial, sans-serif" font-size="11" fill="#666" text-anchor="middle">Past</text>
    <text x="700" y="203" font-family="Arial, sans-serif" font-size="11" fill="#666" text-anchor="middle">Cancelled</text>
    
    <!-- Boarding Pass Grid -->
    <g id="boarding-pass-grid">
      <!-- Card 1 -->
      <rect x="520" y="240" width="280" height="100" fill="white" stroke="#e0e0e0" rx="8"/>
      <line x1="720" y1="250" x2="720" y2="330" stroke="#ccc" stroke-width="1" stroke-dasharray="3,3"/>
      
      <text x="530" y="265" font-family="Arial, sans-serif" font-size="14" font-weight="bold">Summer Music Festival</text>
      <text x="530" y="280" font-family="Arial, sans-serif" font-size="11" fill="#666">Saturday, Aug 10, 2025 • 6:00 PM</text>
      <text x="530" y="295" font-family="Arial, sans-serif" font-size="11" fill="#666">📍 Central Park, NYC</text>
      <text x="530" y="310" font-family="Arial, sans-serif" font-size="11" fill="#005BFF">General Admission</text>
      <text x="530" y="325" font-family="Arial, sans-serif" font-size="9" fill="#666">Ticket #SMF-2025-001</text>
      
      <rect x="730" y="250" width="60" height="60" fill="#000"/>
      <rect x="735" y="255" width="50" height="50" fill="white"/>
      <text x="760" y="325" font-family="Arial, sans-serif" font-size="8" text-anchor="middle">QR Code</text>
      
      <circle cx="780" cy="250" r="6" fill="#4CAF50"/>
      
      <!-- Card 2 -->
      <rect x="820" y="240" width="280" height="100" fill="white" stroke="#e0e0e0" rx="8"/>
      <line x1="1020" y1="250" x2="1020" y2="330" stroke="#ccc" stroke-width="1" stroke-dasharray="3,3"/>
      
      <text x="830" y="265" font-family="Arial, sans-serif" font-size="14" font-weight="bold">Tech Conference 2025</text>
      <text x="830" y="280" font-family="Arial, sans-serif" font-size="11" fill="#666">Friday, Aug 16, 2025 • 9:00 AM</text>
      <text x="830" y="295" font-family="Arial, sans-serif" font-size="11" fill="#666">📍 Convention Center</text>
      <text x="830" y="310" font-family="Arial, sans-serif" font-size="11" fill="#FF6600">VIP Experience</text>
      <text x="830" y="325" font-family="Arial, sans-serif" font-size="9" fill="#666">Ticket #TC-2025-042</text>
      
      <rect x="1030" y="250" width="60" height="60" fill="#000"/>
      <rect x="1035" y="255" width="50" height="50" fill="white"/>
      <text x="1060" y="325" font-family="Arial, sans-serif" font-size="8" text-anchor="middle">QR Code</text>
      
      <circle cx="1080" cy="250" r="6" fill="#FF9800"/>
      
      <!-- Card 3 -->
      <rect x="520" y="360" width="280" height="100" fill="white" stroke="#e0e0e0" rx="8"/>
      <line x1="720" y1="370" x2="720" y2="450" stroke="#ccc" stroke-width="1" stroke-dasharray="3,3"/>
      
      <text x="530" y="385" font-family="Arial, sans-serif" font-size="14" font-weight="bold">Art Gallery Opening</text>
      <text x="530" y="400" font-family="Arial, sans-serif" font-size="11" fill="#666">Sunday, Aug 25, 2025 • 7:00 PM</text>
      <text x="530" y="415" font-family="Arial, sans-serif" font-size="11" fill="#666">📍 Downtown Gallery</text>
      <text x="530" y="430" font-family="Arial, sans-serif" font-size="11" fill="#4CAF50">Free Entry</text>
      <text x="530" y="445" font-family="Arial, sans-serif" font-size="9" fill="#666">Ticket #AG-2025-156</text>
      
      <rect x="730" y="370" width="60" height="60" fill="#000"/>
      <rect x="735" y="375" width="50" height="50" fill="white"/>
      <text x="760" y="445" font-family="Arial, sans-serif" font-size="8" text-anchor="middle">QR Code</text>
      
      <circle cx="780" cy="370" r="6" fill="#4CAF50"/>
    </g>
    
    <!-- Action Buttons -->
    <rect x="820" y="360" width="120" height="30" fill="#005BFF" rx="4"/>
    <text x="880" y="380" font-family="Arial, sans-serif" font-size="11" fill="white" text-anchor="middle">View Details</text>
    
    <rect x="820" y="400" width="120" height="30" fill="white" stroke="#005BFF" rx="4"/>
    <text x="880" y="420" font-family="Arial, sans-serif" font-size="11" fill="#005BFF" text-anchor="middle">Add to Wallet</text>
    
    <rect x="820" y="440" width="120" height="30" fill="white" stroke="#ccc" rx="4"/>
    <text x="880" y="460" font-family="Arial, sans-serif" font-size="11" text-anchor="middle">Transfer Ticket</text>
  </g>
  
  <!-- Annotations -->
  <g id="annotations">
    <text x="50" y="700" font-family="Arial, sans-serif" font-size="14" font-weight="bold">KEY ANNOTATIONS:</text>
    <text x="50" y="720" font-family="Arial, sans-serif" font-size="12">• Airline boarding pass metaphor with perforated design</text>
    <text x="50" y="735" font-family="Arial, sans-serif" font-size="12">• QR codes for quick check-in and ticket validation</text>
    <text x="50" y="750" font-family="Arial, sans-serif" font-size="12">• Swipe gestures on mobile for archive functionality</text>
    <text x="50" y="765" font-family="Arial, sans-serif" font-size="12">• Status indicators: Active, Warning, Expired</text>
    <text x="50" y="780" font-family="Arial, sans-serif" font-size="12">• Web: Grid layout with action buttons, Mobile: Card stack</text>
  </g>
</svg>